# xmcd CD database file
#
# Track frame offsets:
#	150
#	24013
#	50087
#	72354
#	94592
#	108904
#	114985
#	138516
#	164673
#	199856
#	203003
#	222766
#
# Disc length: 3223 seconds
#
# Revision: 0
# Processed by: cddbd v1.5PL3 Copyright (c) Steve Scherf et al.
# Submitted via: CDex 1.50beta10
#
DISCID=a60c950c
DTITLE=Lonaloop - Cleared 4 Take Off
DYEAR=1900
DGENRE=Salsa
TTITLE0=that was hot!
TTITLE1=still missing
TTITLE2=circus girls
TTITLE3=world
TTITLE4=pussycat
TTITLE5=love letters via frogs
TTITLE6=atlantis
TTITLE7=a. m. mayhem
TTITLE8=moonshine
TTITLE9=hot little thing
TTITLE10=something 4 u
TTITLE11=holiday music
EXTD=
EXTT0=
EXTT1=
EXTT2=
EXTT3=
EXTT4=
EXTT5=
EXTT6=
EXTT7=
EXTT8=
EXTT9=
EXTT10=
EXTT11=
PLAYORDER=
